<svg height="480pt" viewBox="0 -8 480.00001 480" width="480pt" xmlns="http://www.w3.org/2000/svg"><path d="m232 207.96875h-56v-136h104l8 136" fill="#f0cfb1"/><path d="m296 39.96875h-120v72c0 8.839844 7.164062 16 16 16s16-7.160156 16-16v-40h88c8.835938 0 16-7.160156 16-16 0-8.835938-7.164062-16-16-16zm0 0" fill="#ad2943"/><path d="m176 207.96875h32v32h-32zm0 0" fill="#f0cfb1"/><path d="m228.425781 168.816406 31.996094-16 7.15625 14.3125-32 16zm0 0" fill="#ad2943"/><path d="m320 395.472656v68.496094h-200v-192c0-17.671875 14.328125-32 32-32h88l1.921875-.320312zm0 0" fill="#127bab"/><path d="m291.28125 239.96875h44.71875c17.671875 0 32 14.328125 32 32v8c.007812 3.042969-.5625 6.054688-1.679688 8.882812l-47.441406 118.640626-.558594 1.359374c-3.640624 9.136719-12.484374 15.128907-22.320312 15.117188-.800781 0-1.601562 0-2.398438-.078125-10.605468-1.105469-19.226562-9.042969-21.203124-19.519531l-30.476563-164.722656-5.121094-27.679688c-1.183593-6.257812.175781-12.734375 3.777344-17.988281 3.605469-5.257813 9.15625-8.859375 15.421875-10.011719 1.453125-.25 2.925781-.382812 4.398438-.398438 11.5625-.003906 21.480468 8.234376 23.601562 19.601563zm0 0" fill="#168fba"/><path d="m160 303.96875h16v160h-16zm0 0" fill="#168fba"/><path d="m283.4375 241.53125 15.683594-3.125 20.71875 103.996094-15.683594 3.125zm0 0" fill="#127bab"/><g fill="#4e4e4e"><path d="m408 103.96875h-16v-8.613281c.097656-14.363281 7.8125-27.589844 20.265625-34.746094 9.777344-5.792969 14.152344-17.652344 10.472656-28.410156-3.675781-10.757813-14.394531-17.457031-25.675781-16.054688-10.574219 1.355469-19.007812 9.484375-20.75 20-.199219 1.265625-.304688 2.546875-.3125 3.824219h-16c0-2.105469.164062-4.207031.488281-6.285156 2.929688-18.3125 18.058594-32.210938 36.554688-33.574219 18.496093-1.367187 35.5 10.160156 41.085937 27.84375 5.585938 17.683594-1.71875 36.886719-17.640625 46.394531-7.601562 4.285156-12.355469 12.28125-12.488281 21.007813zm0 0"/><path d="m392 119.96875h16v16h-16zm0 0"/><path d="m24 191.96875c-.035156-10.914062 6.027344-20.9375 15.710938-25.972656 6.074218-3.328125 9.304687-10.195313 8-16.992188-1.257813-6.476562-6.324219-11.542968-12.800782-12.800781-4.679687-.867187-9.5.394531-13.15625 3.441406-3.65625 3.050781-5.765625 7.566407-5.753906 12.324219h-16c-.015625-15.613281 11.242188-28.957031 26.636719-31.574219 15.390625-2.617187 30.425781 6.257813 35.574219 20.996094 5.148437 14.742187-1.09375 31.046875-14.769532 38.578125-4.375 2.113281-7.230468 6.453125-7.441406 11.304688zm0 0"/><path d="m24 207.96875h16v16h-16zm0 0"/><path d="m440 279.96875c-.035156-10.914062 6.027344-20.9375 15.710938-25.972656 6.074218-3.328125 9.304687-10.195313 8-16.992188-1.257813-6.476562-6.324219-11.542968-12.800782-12.800781-4.679687-.867187-9.5.394531-13.15625 3.441406-3.65625 3.050781-5.765625 7.566407-5.753906 12.324219h-16c.003906-15.605469 11.273438-28.933594 26.660156-31.539062 15.390625-2.605469 30.414063 6.277343 35.554688 21.015624 5.140625 14.738282-1.101563 31.035157-14.773438 38.566407-4.359375 2.101562-7.21875 6.425781-7.441406 11.261719zm0 0"/><path d="m440 295.96875h16v16h-16zm0 0"/><path d="m112 71.96875h-16v-2.101562c.230469-9.402344 4.964844-18.121094 12.726562-23.433594 3.042969-2.230469 4.117188-6.28125 2.574219-9.722656-1.542969-3.441407-5.277343-5.339844-8.96875-4.554688-3.6875.785156-6.328125 4.042969-6.332031 7.8125h-16c0-11.320312 7.910156-21.097656 18.980469-23.46875 11.066406-2.367188 22.285156 3.320312 26.917969 13.648438 4.632812 10.332031 1.417968 22.492187-7.714844 29.183593-3.597656 2.347657-5.886719 6.246094-6.183594 10.535157zm0 0"/><path d="m96 87.472656h16v16h-16zm0 0"/></g></svg>